<?xml version="1.0" standalone="no"?>
<!DOCTYPE svg PUBLIC "-//W3C//DTD SVG 20010904//EN"
 "http://www.w3.org/TR/2001/REC-SVG-20010904/DTD/svg10.dtd">
<svg version="1.0" xmlns="http://www.w3.org/2000/svg"
 width="800.000000pt" height="800.000000pt" viewBox="0 0 800.000000 800.000000"
 preserveAspectRatio="xMidYMid meet">
<metadata>
Created by potrace 1.16, written by Peter Selinger 2001-2019
</metadata>
<g transform="translate(0.000000,800.000000) scale(0.100000,-0.100000)"
fill="#000000" stroke="none">
<path d="M0 4000 l0 -4000 4000 0 4000 0 0 4000 0 4000 -4000 0 -4000 0 0
-4000z m4475 3756 c61 -26 60 -17 60 -511 1 -247 -3 -467 -8 -488 -16 -73 -2
-71 -521 -71 -503 -1 -507 -1 -534 56 -10 21 -13 134 -13 489 0 440 1 464 19
488 37 51 37 51 515 51 364 0 454 -3 482 -14z m2447 -1054 l33 -32 2 -443 c2
-476 2 -472 -50 -511 -28 -20 -40 -21 -435 -23 -255 -2 -419 1 -438 7 -17 6
-42 22 -55 36 l-24 26 -2 389 c-1 275 -5 394 -13 404 -6 7 -7 16 -2 19 5 3 12
26 15 51 5 48 34 89 72 106 11 4 210 7 442 6 l423 -2 32 -33z m-2785 -212
c152 -12 269 -31 406 -65 267 -69 667 -249 667 -301 0 -10 -118 -203 -261
-431 -182 -288 -267 -413 -279 -413 -10 0 -55 20 -101 44 -100 53 -222 97
-339 122 -122 27 -422 27 -535 0 -116 -27 -237 -71 -338 -123 -48 -25 -93 -43
-100 -40 -7 3 -105 150 -217 328 -112 178 -227 360 -255 404 -64 99 -67 108
-50 133 20 28 300 163 438 211 334 116 632 156 964 131z m-1481 -408 c6 -4 64
-92 129 -197 65 -104 183 -292 262 -417 103 -162 142 -232 136 -243 -5 -8 -24
-26 -43 -40 -19 -14 -70 -60 -113 -102 -232 -227 -373 -525 -406 -856 -5 -49
-13 -93 -17 -97 -5 -5 -231 -10 -503 -11 -405 -1 -495 1 -503 12 -12 17 -2
190 18 329 61 418 239 828 497 1150 103 129 290 311 417 407 96 73 107 78 126
65z m2752 -74 c126 -94 347 -315 445 -445 284 -376 450 -819 485 -1296 6 -85
5 -113 -6 -128 -13 -18 -32 -19 -507 -19 -567 0 -508 -13 -518 110 -18 219
-102 455 -228 644 -59 89 -207 248 -280 302 -29 21 -49 43 -49 55 0 11 107
189 238 397 131 207 248 394 261 415 14 22 30 37 42 37 11 0 63 -33 117 -72z
m-4112 -724 c28 -3 50 -14 70 -35 l29 -30 0 -449 0 -450 -32 -32 -32 -32 -373
2 c-399 2 -401 3 -430 54 -9 17 -12 133 -12 458 -1 399 0 438 16 463 10 14 28
32 40 39 35 20 589 29 724 12z m2508 -658 c18 -8 46 -31 62 -52 25 -33 29 -46
29 -105 0 -53 -5 -74 -21 -96 -73 -98 -205 -99 -276 -2 -40 54 -36 157 9 210
48 56 127 74 197 45z m3450 -76 c241 0 273 -6 300 -59 14 -26 16 -88 16 -443
0 -466 -1 -471 -70 -495 -44 -15 -776 -18 -814 -3 -14 5 -35 24 -46 42 -19 32
-20 51 -20 451 0 377 2 422 17 448 29 49 65 59 221 59 124 0 141 2 147 18 6
16 7 16 19 0 12 -16 35 -18 230 -18z m-3244 -95 l5 -80 30 0 30 0 3 83 3 82
34 0 35 0 0 -120 0 -120 -29 0 c-17 0 -33 5 -37 11 -4 8 -9 8 -17 0 -15 -15
-78 -13 -99 3 -10 7 -22 25 -28 40 -11 31 -14 169 -3 180 4 4 21 6 38 4 l30
-3 5 -80z m256 74 c4 -8 9 -8 17 0 6 6 21 11 34 11 19 0 23 -5 23 -30 0 -37
-3 -46 -14 -42 -4 1 -19 -4 -32 -13 -22 -14 -24 -23 -24 -86 l0 -70 -37 3
c-42 3 -40 -7 -35 166 l2 72 29 0 c17 0 33 -5 37 -11z m-962 -319 c28 -10 70
-70 58 -81 -4 -4 -22 -10 -39 -14 -26 -5 -33 -3 -33 9 0 17 -41 31 -65 22 -18
-7 -20 -45 -2 -51 6 -2 32 -9 56 -15 55 -14 91 -50 91 -89 0 -71 -44 -111
-122 -111 -55 0 -87 17 -111 59 -17 27 -18 34 -6 42 24 15 69 11 69 -6 0 -31
72 -40 92 -12 13 20 -5 37 -59 52 -69 20 -103 52 -103 98 0 38 30 84 64 97 29
12 80 12 110 0z m255 -104 c31 -17 51 -54 51 -96 l0 -30 -75 0 c-75 0 -86 -5
-63 -28 15 -15 43 -15 67 0 15 9 25 9 45 0 23 -10 25 -14 14 -31 -16 -26 -51
-41 -93 -41 -73 0 -115 45 -115 123 0 91 88 145 169 103z m226 -25 c0 -28 -4
-35 -24 -38 -43 -6 -51 -21 -51 -94 l0 -69 -35 0 -35 0 0 116 0 117 44 -5 c24
-3 50 -1 58 3 26 17 43 5 43 -30z m572 4 c30 -34 29 -51 -4 -60 -19 -4 -31 -2
-39 9 -19 26 -63 20 -75 -10 -20 -55 22 -99 66 -70 45 30 83 17 70 -24 -15
-48 -121 -67 -168 -30 -46 37 -57 116 -23 173 30 52 133 59 173 12z m236 -5
c18 -21 27 -41 27 -65 l0 -35 -75 0 c-41 0 -75 -4 -75 -8 0 -28 55 -43 77 -21
15 15 63 3 63 -15 0 -27 -50 -56 -97 -56 -38 0 -50 5 -80 35 -34 34 -35 38
-31 90 7 82 47 119 123 110 29 -3 48 -12 68 -35z m208 14 c10 -9 19 -23 19
-29 0 -17 -50 -29 -63 -16 -15 15 -50 14 -45 -1 3 -7 20 -16 39 -20 109 -27
93 -148 -20 -148 -52 0 -91 21 -91 49 0 26 46 37 66 16 18 -17 17 -17 38 -9
27 10 18 23 -26 35 -24 6 -51 18 -60 26 -33 29 -18 95 25 113 31 14 95 5 118
-16z m-905 -41 c9 -32 19 -62 22 -67 3 -5 15 20 26 55 21 63 22 64 60 67 29 3
37 0 34 -10 -3 -7 -22 -59 -43 -115 l-38 -103 -37 0 -37 0 -39 107 c-22 59
-40 111 -42 115 -2 4 15 8 37 8 l40 0 17 -57z m244 -20 c0 -43 -3 -95 -6 -115
-6 -35 -9 -38 -40 -38 l-34 0 0 115 0 115 40 0 40 0 0 -77z m-1536 9 c2 -4 12
-61 20 -126 49 -372 226 -691 514 -925 28 -24 52 -48 52 -54 0 -7 -59 -102
-130 -212 -71 -110 -143 -222 -160 -250 -17 -27 -53 -84 -80 -125 -27 -41 -70
-110 -96 -152 -26 -43 -56 -81 -66 -84 -33 -10 -209 128 -378 298 -251 253
-435 550 -559 901 -61 173 -104 381 -121 585 -10 121 -8 139 18 145 35 8 981
7 986 -1z m3734 -42 c5 -60 -14 -240 -38 -364 -47 -239 -105 -415 -205 -621
-124 -254 -260 -441 -471 -645 -133 -129 -316 -270 -350 -270 -22 0 -39 22
-121 155 -17 28 -117 188 -222 357 -105 169 -191 313 -191 321 0 8 33 43 73
78 209 183 344 381 425 625 35 103 72 284 72 348 0 23 5 47 12 54 9 9 132 12
513 10 l500 -3 3 -45z m-2985 -1148 c369 -197 818 -201 1201 -10 54 27 104 47
111 44 13 -5 99 -139 369 -573 124 -200 155 -256 148 -270 -6 -9 -54 -41 -109
-71 -480 -262 -1015 -344 -1553 -236 -145 29 -213 49 -365 105 -133 50 -403
186 -416 211 -13 24 -27 -2 226 391 22 34 96 149 164 255 69 107 130 192 138
192 8 0 47 -17 86 -38z m-1546 -245 l28 -27 3 -413 c3 -441 1 -471 -45 -506
-25 -20 -38 -21 -385 -21 -385 0 -413 3 -439 51 -8 17 -12 135 -13 448 -1 390
0 428 16 451 36 50 37 50 435 47 l373 -2 27 -28z m5100 7 c53 -39 53 -39 52
-469 0 -445 -2 -459 -59 -487 -31 -16 -73 -18 -405 -18 -349 0 -372 1 -402 20
-17 10 -37 29 -43 41 -11 19 -14 239 -10 796 0 51 4 67 26 92 14 17 40 35 57
40 18 6 191 9 394 8 350 -2 362 -3 390 -23z m-2477 -1119 c12 -11 27 -31 32
-45 14 -36 11 -852 -3 -883 -26 -57 -30 -57 -486 -57 -398 0 -420 1 -450 20
-18 11 -36 32 -40 47 -5 15 -8 215 -8 444 0 457 0 459 60 485 24 11 119 13
451 11 406 -2 423 -3 444 -22z"/>
<path d="M3842 7568 c-17 -17 -17 -319 0 -336 8 -8 58 -12 158 -12 100 0 150
4 158 12 15 15 17 301 2 329 -10 17 -23 19 -158 19 -102 0 -152 -4 -160 -12z
m308 -191 c0 -75 -4 -117 -12 -125 -8 -8 -53 -12 -138 -12 -85 0 -130 4 -138
12 -8 8 -12 50 -12 125 l0 113 150 0 150 0 0 -113z"/>
<path d="M6360 6571 c-6 -11 -10 -87 -10 -174 0 -126 3 -157 15 -167 25 -21
152 -24 181 -5 24 15 24 17 24 171 0 88 -4 164 -10 175 -9 17 -22 19 -100 19
-78 0 -91 -2 -100 -19z m188 -138 l-3 -118 -85 0 -85 0 -3 118 -3 117 91 0 91
0 -3 -117z"/>
<path d="M1992 4763 c-15 -6 -42 -56 -42 -78 0 -29 55 -75 90 -75 69 0 107 91
57 138 -22 21 -73 28 -105 15z"/>
<path d="M930 5110 c0 -26 -24 -36 -55 -22 -19 9 -26 7 -41 -9 -14 -15 -15
-24 -7 -42 13 -28 6 -42 -24 -51 -17 -6 -23 -15 -23 -37 0 -18 5 -29 14 -29 8
0 22 -7 30 -15 12 -13 13 -20 4 -34 -22 -36 16 -76 51 -54 22 14 51 -2 51 -27
0 -15 7 -20 29 -20 23 0 30 6 35 26 6 23 10 25 45 19 48 -8 70 13 53 50 -9 19
-8 27 4 40 9 8 22 15 30 15 9 0 14 11 14 29 0 22 -6 31 -22 37 -31 9 -38 23
-25 51 9 20 7 27 -11 46 -17 17 -24 19 -34 9 -20 -20 -45 -14 -52 13 -5 20
-13 25 -36 25 -23 0 -30 -4 -30 -20z m92 -89 c67 -60 28 -166 -62 -166 -57 0
-93 37 -92 96 1 36 6 49 32 72 40 36 80 35 122 -2z"/>
<path d="M3675 4535 c-34 -33 -34 -93 -1 -131 53 -63 146 -20 146 67 0 80 -90
120 -145 64z"/>
<path d="M7099 4359 c-43 -28 -79 -44 -109 -47 -25 -2 -51 -9 -57 -15 -20 -15
-16 -84 5 -99 11 -7 22 -31 26 -53 12 -63 23 -77 59 -73 l32 3 -3 54 -3 53 38
-23 c21 -12 48 -29 61 -37 18 -12 28 -12 47 -4 20 9 25 19 25 49 0 27 6 42 20
51 11 7 20 23 20 37 0 14 -9 30 -20 37 -14 9 -20 24 -20 48 0 72 -32 76 -121
19z m91 -104 c0 -76 -4 -115 -11 -115 -6 0 -34 16 -63 35 -37 25 -68 36 -110
41 -57 7 -57 7 -54 38 3 28 6 31 45 32 32 1 59 12 105 43 35 22 69 41 76 41 9
0 12 -30 12 -115z"/>
<path d="M1360 2499 c-93 -38 -113 -147 -41 -226 16 -18 25 -35 20 -38 -21
-14 -6 -22 40 -21 59 1 98 32 132 103 35 72 6 149 -67 179 -38 16 -50 16 -84
3z m114 -60 c24 -27 27 -38 23 -71 -6 -41 -45 -101 -78 -119 -27 -14 -58 7
-90 58 -73 118 53 233 145 132z"/>
<path d="M6479 2494 c-10 -12 -10 -20 -1 -35 7 -10 12 -30 12 -44 0 -23 -3
-25 -50 -25 -52 0 -51 1 -116 -71 -22 -24 -18 -86 6 -99 11 -6 20 -17 20 -24
0 -7 8 -20 18 -29 15 -14 41 -17 141 -17 l122 0 20 35 c12 19 25 35 30 35 16
0 11 90 -6 96 -8 4 -15 12 -15 18 0 29 -46 56 -93 56 -44 0 -47 2 -47 25 0 14
5 34 12 44 9 15 9 23 -1 35 -8 9 -19 16 -26 16 -7 0 -18 -7 -26 -16z m145
-150 c19 -18 22 -114 6 -145 -10 -17 -22 -19 -123 -19 -75 0 -117 4 -125 12
-7 7 -12 40 -12 78 0 38 5 71 12 78 19 19 222 16 242 -4z"/>
<path d="M3935 1371 c-17 -10 -39 -30 -48 -45 -10 -14 -23 -26 -30 -26 -7 0
-26 -13 -41 -29 -33 -34 -44 -102 -24 -141 18 -33 75 -70 109 -70 44 0 36 26
-10 34 -48 7 -81 45 -81 91 0 36 30 80 62 91 11 3 38 24 58 45 40 43 71 49
118 25 30 -15 49 -47 54 -86 2 -16 10 -26 23 -28 33 -6 55 -33 55 -67 0 -41
-27 -65 -79 -72 -42 -6 -53 -19 -26 -29 8 -4 30 -3 49 0 85 16 118 118 55 170
-17 14 -35 26 -40 26 -5 0 -9 8 -9 18 0 28 -37 80 -69 97 -40 20 -89 19 -126
-4z"/>
</g>
</svg>
