<svg id="Layer_1" data-name="Layer 1" xmlns="http://www.w3.org/2000/svg" viewBox="0 0 150 50"><defs><style>.cls-1{fill:#fff;}</style></defs><title>clickhub logo 150.50 svg</title><path class="cls-1" d="M22.45,12.13a47.74,47.74,0,0,1,0,5.35c-.17.15-.38.09-.58.09H18.35a7.25,7.25,0,0,0-3.7.93,7.19,7.19,0,0,0-3.8,6.92A7.3,7.3,0,0,0,17,32.28a11.49,11.49,0,0,0,1.44.11h3.94a1,1,0,0,1,.09.28c0,1.63,0,3.26,0,4.89a2.15,2.15,0,0,1-.06.29c-.2,0-.37,0-.55,0-1.29,0-2.58,0-3.86,0a12.91,12.91,0,0,1-2.7-25.49A11.86,11.86,0,0,1,18,12.1h4C22.14,12.09,22.28,12.12,22.45,12.13Z"/><path class="cls-1" d="M42,22.18a20.18,20.18,0,0,0,0-3.49c-.49-.15-1,0-1.58-.11a2,2,0,0,1,.16-.38c.5-.74,1-1.47,1.52-2.21l2.28-3.28c.12-.18.26-.36.42-.57a2,2,0,0,1,.26.28C46.23,14,49,18,49.22,18.5c0,.15-.17.12-.28.13H47.72a1.2,1.2,0,0,0-.12.77c0,2,0,4,0,6,0,.58,0,1.15,0,1.72,0,.18,0,.36,0,.53a1.11,1.11,0,0,1-.7.1H26.41l-.79,0a46.08,46.08,0,0,1,0-5.39c.2-.16.44-.1.66-.1h15A2.66,2.66,0,0,0,42,22.18Z"/><path class="cls-1" d="M105.87,19.15l-2.43,2.64-2.36,2.55a5.63,5.63,0,0,0,.37.51q2.08,2.66,4.19,5.29a1.89,1.89,0,0,1,.43.66,2.68,2.68,0,0,1-1,.08c-.35,0-.69,0-1,0h-1l-1.9-2.31c-.61-.74-1.21-1.49-1.85-2.24a5.56,5.56,0,0,0-.82.78,2.67,2.67,0,0,0-.66.78A3,3,0,0,0,97.69,29c0,.55,0,1.1,0,1.65a.62.62,0,0,1,0,.16,3.15,3.15,0,0,1-1.26.1c-.44,0-.87,0-1.33,0,0-.17-.08-.29-.1-.42a1.31,1.31,0,0,1,0-.28V19.79c0-.18,0-.37,0-.57a.73.73,0,0,1,.25-.1c.73,0,1.47,0,2.2,0a1.37,1.37,0,0,1,.24.07c0,.19,0,.39,0,.59,0,1.29,0,2.57,0,3.86,0,.22,0,.44,0,.71.24,0,.34-.2.46-.32,1.36-1.43,2.71-2.87,4.08-4.29.7-.74.43-.63,1.47-.64h1.52Z"/><path class="cls-1" d="M134.64,30.85c-.1-.66-.1-11.06,0-11.67a2.12,2.12,0,0,1,.45-.07h4.82a7.06,7.06,0,0,1,1.71.19,4,4,0,0,1,1.36.63,2.56,2.56,0,0,1,1.08,2,2.81,2.81,0,0,1-1.23,2.68.43.43,0,0,0-.1.09.24.24,0,0,0-.05.09L143,25a2.9,2.9,0,0,1,1.65,3.19,2.68,2.68,0,0,1-1.48,2.11,4.32,4.32,0,0,1-1.43.48,9.88,9.88,0,0,1-1.44.13c-1.72,0-3.44,0-5.16,0Zm1.7-1.44a.74.74,0,0,0,.18.06c1.3,0,2.61,0,3.92,0a3.61,3.61,0,0,0,1.41-.27,1.63,1.63,0,0,0,1-.92,1.79,1.79,0,0,0-1.12-2.44,4.34,4.34,0,0,0-1.29-.2H136.7a2,2,0,0,0-.37.08A32.49,32.49,0,0,0,136.34,29.41Zm0-5.24c.22,0,.39,0,.57,0,.9,0,1.79,0,2.68,0a7,7,0,0,0,1-.08,2.48,2.48,0,0,0,1-.38,1.53,1.53,0,0,0,.69-1.14,1.66,1.66,0,0,0-1.15-1.88,3.93,3.93,0,0,0-1.35-.21h-3.1a3.69,3.69,0,0,0-.37.05A23.86,23.86,0,0,0,136.34,24.17Z"/><path class="cls-1" d="M93.14,21c-.53.61-1.15,1.08-1.73,1.64A3.86,3.86,0,0,0,88,21.27a3.51,3.51,0,0,0-2.35,1.17,4,4,0,0,0,.11,5.22,3.73,3.73,0,0,0,2.89,1.06,3.92,3.92,0,0,0,2.73-1.34,4.29,4.29,0,0,1,.89.73c.3.26.58.53.89.81a2.93,2.93,0,0,1-.25.35A5.09,5.09,0,0,1,91,30.55a7,7,0,0,1-5.88-.21,5.66,5.66,0,0,1-3.22-5.09,5.8,5.8,0,0,1,1.78-4.6,5.63,5.63,0,0,1,2.16-1.33,7.3,7.3,0,0,1,4.86,0,5.34,5.34,0,0,1,2.18,1.41A2.28,2.28,0,0,1,93.14,21Z"/><path class="cls-1" d="M65.21,21a9.7,9.7,0,0,1-1.72,1.58,4.61,4.61,0,0,0-1.89-1.19,4.52,4.52,0,0,0-1.51-.11,3.4,3.4,0,0,0-1.31.38,3.46,3.46,0,0,0-1,.79,4,4,0,0,0,.07,5.18,3.71,3.71,0,0,0,2.86,1.1,3.88,3.88,0,0,0,2.77-1.31A7.68,7.68,0,0,1,65.24,29a4.39,4.39,0,0,1-.28.36A5.81,5.81,0,0,1,61.42,31a7.71,7.71,0,0,1-3.13-.24,6,6,0,0,1,1-11.77,7.39,7.39,0,0,1,3.92.43A5.17,5.17,0,0,1,65,20.71a.65.65,0,0,1,.13.16A.26.26,0,0,1,65.21,21Z"/><path class="cls-1" d="M116.1,24c0-.49,0-1,0-1.59V20.84c0-.55,0-1.1,0-1.66a5,5,0,0,1,1.64,0,4.49,4.49,0,0,1,.06.48V30.31c0,.15,0,.31,0,.49a4.67,4.67,0,0,1-1.53.05c-.2-.21-.14-.43-.14-.63V26.43c0-.22,0-.45,0-.71a2.73,2.73,0,0,0-.34-.06h-5.93a2.8,2.8,0,0,0-.36.05c-.08.87,0,1.71,0,2.56s0,1.68,0,2.53a1.5,1.5,0,0,1-.33.07h-1.27c0-.16-.08-.29-.09-.42a2.77,2.77,0,0,1,0-.41c0-3.37,0-6.75,0-10.12a2,2,0,0,1,.06-.76,5.23,5.23,0,0,1,1.58,0,10.7,10.7,0,0,1,.06,1.68c0,.53,0,1.06,0,1.59s0,1.09,0,1.58c.06.07.07.1.09.11l.06,0,6.07,0a2.09,2.09,0,0,0,.34,0Z"/><path class="cls-1" d="M31,20.73c-.07,0-.13.07-.19.07H25.88a1.32,1.32,0,0,1-.3-.06c0-.19,0-.36,0-.54-.06-3.94,0-7.52.09-8a.55.55,0,0,1,.18-.06h4.88a1.28,1.28,0,0,1,.27.05c0,.08.07.14.07.2v8.19A.56.56,0,0,1,31,20.73Z"/><path class="cls-1" d="M25.57,29.27c.1,0,.16-.08.22-.08h4.89a1.19,1.19,0,0,1,.26,0,.64.64,0,0,1,.08.2c0,2.7,0,5.41,0,8.11a1.41,1.41,0,0,1-.07.3,7,7,0,0,1-1.37,0H26.91a9.85,9.85,0,0,1-1.32,0,2.8,2.8,0,0,1-.05-.36c0-2.64,0-5.27,0-7.91A3.16,3.16,0,0,1,25.57,29.27Z"/><path class="cls-1" d="M47.54,37.84a2.32,2.32,0,0,1-.3,0H42.35c-.06,0-.12,0-.22-.08s0-.21,0-.32c-.06-1.31,0-7.66,0-8.23a2,2,0,0,1,.37-.07h4.61a3.53,3.53,0,0,1,.42.06c0,.13.05.24.06.35C47.65,30.82,47.61,37.27,47.54,37.84Z"/><path class="cls-1" d="M67.08,19.21a8.56,8.56,0,0,1,2.72,0c.06.6,0,1.22,0,1.83s0,1.24,0,1.86v5.53c.22.24.46.18.68.18h4.75a1.65,1.65,0,0,1,.32.06,6.08,6.08,0,0,1,0,2.13.55.55,0,0,1-.18.06H67.33a.85.85,0,0,1-.21-.07,1.64,1.64,0,0,1-.06-.73q0-4,0-7.92V19.81C67.06,19.61,67.07,19.4,67.08,19.21Z"/><path class="cls-1" d="M129.58,19.16a3.91,3.91,0,0,1,1.56,0c0,.18,0,.34,0,.49,0,2.09,0,4.18,0,6.27a7.55,7.55,0,0,1-.22,1.7,4.08,4.08,0,0,1-3.24,3.19,6.08,6.08,0,0,1-3.33-.08,4.12,4.12,0,0,1-2.87-2.82,6.56,6.56,0,0,1-.28-2c0-1.65,0-3.3,0-5,0-.46,0-.91,0-1.37a3.61,3.61,0,0,1,0-.44,4,4,0,0,1,1.66,0c0,.27,0,.52,0,.77,0,1.93,0,3.86,0,5.78a5.92,5.92,0,0,0,.25,1.77,2.66,2.66,0,0,0,2.16,1.89,4.39,4.39,0,0,0,1.84,0,2.66,2.66,0,0,0,2.07-1.82,6,6,0,0,0,.26-1.83V19.93A1.6,1.6,0,0,1,129.58,19.16Z"/><path class="cls-1" d="M77.25,19.12c.88,0,1.73,0,2.6,0a3.11,3.11,0,0,1,.08.43c0,.48,0,1,0,1.45v9.08a1.46,1.46,0,0,1-.07.72,10.73,10.73,0,0,1-2.58,0,1.4,1.4,0,0,1-.1-.35,5.09,5.09,0,0,1,0-.55V20A2.66,2.66,0,0,1,77.25,19.12Z"/></svg>